<svg width="264" height="56" viewBox="0 0 264 56" fill="none" xmlns="http://www.w3.org/2000/svg">
<g clip-path="url(#clip0_1208_2437)">
<path d="M246.45 17.46C243 26.32 230.76 52.52 250 56H235.34C226.35 45.6 241.5 25.13 246.45 17.46Z" fill="#009AE0"/>
<path d="M250 56C230.76 52.52 243 26.32 246.45 17.46L208 49V0H264V56H250Z" fill="white"/>
<path d="M250 17.46L257.28 6.72998L248.22 14L250 17.46Z" fill="#02092F"/>
<path d="M246.45 17.46L208 49V56L246.45 17.46Z" fill="#009AE0"/>
<path d="M246.45 17.46C242.59 25.74 229.9 48.4 243.53 56H250C230.76 52.52 243 26.32 246.45 17.46Z" fill="#80D5F9"/>
<path d="M15.03 19.6201C14.01 19.5001 13.32 19.4201 12.87 19.4201C9.82 19.4201 7.86 21.0901 7.33 24.3101L5.5 34.7801H0L3.54 14.6101H8.59L8.22 16.6501C9.65 15.1401 11.44 14.3701 13.51 14.3701C14.33 14.3701 15.1 14.5301 15.87 14.8201L15.01 19.6301L15.03 19.6201Z" fill="white"/>
<path d="M38.2005 14.6101L34.7405 34.7701H29.6105L29.9805 32.6901C28.4705 34.3201 26.2705 35.2601 23.8305 35.2601C18.8205 35.2601 15.0705 31.1901 15.0705 25.6901C14.9505 19.3001 19.9205 14.0801 25.9005 14.1601C28.7905 14.1601 31.0305 15.1801 32.3405 16.9701L32.7505 14.6101H38.2105H38.2005ZM26.2705 19.0501C23.1305 19.0501 20.6905 21.7401 20.6905 25.1601C20.6905 28.2601 22.6405 30.3301 25.5405 30.3301C27.1305 30.3301 28.4305 29.7601 29.4905 28.5801C30.5505 27.4001 31.0805 25.9301 31.1205 24.1801C31.1205 21.1301 29.1705 19.0501 26.2705 19.0501Z" fill="white"/>
<path d="M51.7696 35.2602C48.8796 35.2602 46.5996 34.2002 45.2896 32.3702L43.5596 42.2002H38.0596L42.9196 14.6102H47.9696L47.5996 16.7302C49.0696 15.1002 51.2696 14.1602 53.7496 14.1602C58.7596 14.1602 62.5496 18.2302 62.5496 23.7302C62.5496 30.2102 57.8296 35.2602 51.7596 35.2602H51.7696ZM52.0996 19.0902C48.9596 19.0902 46.5196 21.7802 46.5196 25.2802C46.5196 28.2502 48.4796 30.3302 51.3696 30.3302C54.5096 30.3302 56.9496 27.6802 56.9496 24.2602C56.9496 21.2102 54.9996 19.0902 52.0996 19.0902Z" fill="white"/>
<path d="M67.6904 14.6099H73.1904L69.6504 34.7699H64.1504L67.6904 14.6099ZM71.7604 3.85986C73.7104 3.85986 75.3004 5.32986 75.3004 7.27986C75.3004 9.22986 73.7104 10.6599 71.7604 10.6599C69.8104 10.6599 68.2604 9.18986 68.2604 7.27986C68.2604 5.36986 69.8104 3.85986 71.7604 3.85986Z" fill="white"/>
<path d="M99.8305 4.22021L94.4505 34.7702H89.4005L89.7705 32.5702C88.3005 34.3202 86.1005 35.2602 83.5405 35.2602C78.5305 35.2602 74.7805 31.1902 74.7805 25.6902C74.6605 19.3002 79.5905 14.0402 85.4905 14.1602C88.4205 14.1602 90.7405 15.1802 92.0505 17.0902L94.3305 4.22021H99.8305ZM85.9805 19.0902C82.8405 19.0902 80.4005 21.7402 80.4005 25.1602C80.4005 28.2602 82.3105 30.3302 85.2105 30.3302C88.3505 30.3302 90.7905 27.6002 90.7905 24.1802C90.7905 21.1302 88.8805 19.0902 85.9805 19.0902Z" fill="white"/>
<path d="M101.71 27.6799C103.62 29.9199 105.05 30.8199 106.96 30.8199C108.59 30.8199 109.57 30.1699 109.57 29.1899C109.57 28.4199 109.16 27.9699 107.7 27.3199L105.79 26.5099C102.41 25.0799 100.86 23.1299 100.86 20.3599C100.86 16.6099 103.75 14.1699 108.15 14.1699C111.41 14.1699 113.89 15.3099 115.64 17.6299L112.42 20.7299C111.16 19.2999 109.65 18.5699 108.14 18.5699C106.88 18.5699 106.1 19.1799 106.1 20.1199C106.1 20.9299 106.59 21.5899 107.85 22.1199L109.64 22.8899C113.18 24.3999 114.81 26.1499 114.81 28.7099C114.81 32.4999 111.47 35.2699 106.95 35.2699C103.2 35.2699 100.03 33.6399 98.2695 30.7499L101.69 27.6999L101.71 27.6799Z" fill="white"/>
<path d="M128.79 14.1599C132.82 14.1599 136.08 16.1599 137.55 19.4499L133.48 22.1399C132.22 20.0999 130.59 19.0899 128.59 19.0899C125.41 19.0899 122.93 21.7399 122.93 25.0799C122.93 28.1799 125.01 30.3299 127.94 30.3299C129.85 30.3299 131.52 29.4299 132.87 27.6799L136.41 30.7299C134.41 33.6999 131.36 35.2499 127.61 35.2499C121.62 35.2499 117.39 31.1399 117.39 25.3099C117.39 18.9999 122.4 14.1499 128.79 14.1499V14.1599Z" fill="white"/>
<path d="M162.03 14.6101L158.57 34.7701H153.44L153.81 32.6901C152.3 34.3201 150.1 35.2601 147.66 35.2601C142.65 35.2601 138.9 31.1901 138.9 25.6901C138.78 19.3001 143.75 14.0801 149.73 14.1601C152.62 14.1601 154.86 15.1801 156.17 16.9701L156.58 14.6101H162.04H162.03ZM150.1 19.0501C146.96 19.0501 144.52 21.7401 144.52 25.1601C144.52 28.2601 146.47 30.3301 149.37 30.3301C150.96 30.3301 152.26 29.7601 153.32 28.5801C154.38 27.4001 154.91 25.9301 154.95 24.1801C154.95 21.1301 153 19.0501 150.1 19.0501Z" fill="white"/>
<path d="M168.59 4.22021H174.09L168.71 34.7702H163.21L168.59 4.22021Z" fill="white"/>
<path d="M179.3 26.5402C179.79 29.1502 181.7 30.5702 184.76 30.5702C186.71 30.5702 188.63 29.9602 190.46 28.7002L192.46 32.4102C190.14 34.3202 187.41 35.2602 184.27 35.2602C178.16 35.2602 173.84 31.1502 173.84 25.3202C173.72 19.2502 178.97 14.0402 185.04 14.1602C190.29 14.1602 194 17.7802 194 23.0402C194 24.2202 193.76 25.4002 193.31 26.5402H179.3ZM188.75 22.7102C188.71 20.1402 187.12 18.5602 184.64 18.5602C182.16 18.5602 180.2 20.1502 179.43 22.7102H188.76H188.75Z" fill="white"/>
<path d="M74.2803 47.3099H71.5704L71.1404 48.3099H70.1104L72.7604 42.1899H73.0903L75.7403 48.3099H74.7003L74.2703 47.3099H74.2803ZM72.9304 43.9899L71.9203 46.4799H73.9404L72.9404 43.9899H72.9304Z" fill="#009AE0"/>
<path d="M82.6002 42.1899C83.7002 42.1899 84.6602 42.7299 85.1802 43.5799L84.4502 44.1199C84.0202 43.4499 83.4002 43.0799 82.6102 43.0799C81.3802 43.0799 80.4402 44.0299 80.4402 45.3099C80.4402 46.5899 81.3802 47.5399 82.6102 47.5399C83.4002 47.5399 84.0202 47.1699 84.4502 46.4999L85.1802 47.0399C84.6702 47.8899 83.7202 48.4299 82.6002 48.4299C80.8902 48.4599 79.4002 47.0399 79.4402 45.3199C79.4002 43.5999 80.8902 42.1799 82.6002 42.2099V42.1899Z" fill="#009AE0"/>
<path d="M89.2503 42.1899C90.9603 42.1599 92.4503 43.5799 92.4103 45.2999C92.4503 47.0199 90.9503 48.4399 89.2503 48.4099C87.5303 48.4399 86.0603 47.0199 86.0903 45.2999C86.0603 43.5799 87.5303 42.1599 89.2503 42.1899ZM89.2503 43.0699C88.0003 43.0699 87.0903 44.0199 87.0903 45.2899C87.0903 46.5599 88.0003 47.5199 89.2503 47.5199C90.5003 47.5199 91.4103 46.5699 91.4103 45.2899C91.4103 44.0099 90.4803 43.0699 89.2503 43.0699Z" fill="#009AE0"/>
<path d="M97.0503 48.31L95.5903 46.07L94.1403 48.31H93.0303L95.0603 45.24L93.1503 42.29H94.2603L95.5903 44.41L96.9003 42.29H98.0003L96.1303 45.24L98.1403 48.31H97.0403H97.0503Z" fill="#009AE0"/>
<path d="M104.8 48.31H102.22V42.29H104.33C105.42 42.29 106.14 42.96 106.14 43.89C106.14 44.36 105.97 44.74 105.64 45.02C106.34 45.25 106.76 45.81 106.76 46.55C106.76 47.56 105.98 48.3 104.81 48.3L104.8 48.31ZM103.17 43.14V44.76H104.24C104.83 44.76 105.17 44.44 105.17 43.94C105.17 43.44 104.83 43.14 104.24 43.14H103.17ZM104.72 45.59H103.17V47.46H104.72C105.39 47.46 105.78 47.1 105.78 46.53C105.78 45.96 105.39 45.59 104.72 45.59Z" fill="#009AE0"/>
<path d="M108.04 42.29H109.01V45.94C109.01 46.96 109.64 47.53 110.52 47.53C111.4 47.53 112.02 46.96 112.02 45.94V42.29H112.99V45.87C112.99 47.46 111.94 48.4 110.53 48.4C109.12 48.4 108.05 47.45 108.05 45.87V42.29H108.04Z" fill="#009AE0"/>
<path d="M114.88 46.5902C115.28 47.1702 115.76 47.5502 116.46 47.5502C117.08 47.5502 117.5 47.2202 117.5 46.7102C117.5 46.2802 117.24 46.1002 116.62 45.8102L115.95 45.5002C115.07 45.1002 114.55 44.6302 114.55 43.8302C114.55 42.8502 115.41 42.2002 116.45 42.2002C117.3 42.2002 118.02 42.6302 118.39 43.2802L117.72 43.8002C117.4 43.3302 116.96 43.0702 116.45 43.0702C115.94 43.0702 115.54 43.3302 115.54 43.8002C115.58 44.2702 115.79 44.3602 116.38 44.6602L117.05 44.9702C118.03 45.4202 118.49 45.8902 118.49 46.6802C118.49 47.7302 117.63 48.4202 116.47 48.4202C115.49 48.4202 114.66 47.9302 114.2 47.1202L114.88 46.6002V46.5902Z" fill="#009AE0"/>
<path d="M119.99 42.29H120.96V48.31H119.99V42.29Z" fill="#009AE0"/>
<path d="M127.72 42.2899V48.4099H127.39L123.72 44.2299V48.3099H122.75V42.1899H123.09L126.75 46.3499V42.2899H127.72Z" fill="#009AE0"/>
<path d="M129.55 42.29H133.51V43.16H130.52V44.7H132.77V45.54H130.52V47.45H133.62V48.32H129.55V42.3V42.29Z" fill="#009AE0"/>
<path d="M135.2 46.5902C135.6 47.1702 136.08 47.5502 136.78 47.5502C137.4 47.5502 137.82 47.2202 137.82 46.7102C137.82 46.2802 137.56 46.1002 136.94 45.8102L136.27 45.5002C135.39 45.1002 134.87 44.6302 134.87 43.8302C134.87 42.8502 135.73 42.2002 136.77 42.2002C137.62 42.2002 138.34 42.6302 138.71 43.2802L138.04 43.8002C137.72 43.3302 137.28 43.0702 136.77 43.0702C136.26 43.0702 135.86 43.3302 135.86 43.8002C135.9 44.2702 136.11 44.3602 136.7 44.6602L137.37 44.9702C138.35 45.4202 138.81 45.8902 138.81 46.6802C138.81 47.7302 137.95 48.4202 136.79 48.4202C135.81 48.4202 134.98 47.9302 134.52 47.1202L135.2 46.6002V46.5902Z" fill="#009AE0"/>
<path d="M140.5 46.5902C140.9 47.1702 141.38 47.5502 142.08 47.5502C142.7 47.5502 143.12 47.2202 143.12 46.7102C143.12 46.2802 142.86 46.1002 142.24 45.8102L141.57 45.5002C140.69 45.1002 140.17 44.6302 140.17 43.8302C140.17 42.8502 141.03 42.2002 142.07 42.2002C142.92 42.2002 143.64 42.6302 144.01 43.2802L143.34 43.8002C143.02 43.3302 142.58 43.0702 142.07 43.0702C141.56 43.0702 141.16 43.3302 141.16 43.8002C141.2 44.2702 141.41 44.3602 142 44.6602L142.67 44.9702C143.65 45.4202 144.11 45.8902 144.11 46.6802C144.11 47.7302 143.25 48.4202 142.09 48.4202C141.11 48.4202 140.28 47.9302 139.82 47.1202L140.5 46.6002V46.5902Z" fill="#009AE0"/>
<path d="M151.24 42.1899C152.34 42.1899 153.3 42.7299 153.82 43.5799L153.09 44.1199C152.66 43.4499 152.04 43.0799 151.25 43.0799C150.02 43.0799 149.08 44.0299 149.08 45.3099C149.08 46.5899 150.02 47.5399 151.25 47.5399C152.04 47.5399 152.66 47.1699 153.09 46.4999L153.82 47.0399C153.31 47.8899 152.36 48.4299 151.24 48.4299C149.53 48.4599 148.04 47.0399 148.08 45.3199C148.04 43.5999 149.53 42.1799 151.24 42.2099V42.1899Z" fill="#009AE0"/>
<path d="M157.89 42.1899C159.6 42.1599 161.09 43.5799 161.05 45.2999C161.09 47.0199 159.59 48.4399 157.89 48.4099C156.17 48.4399 154.7 47.0199 154.73 45.2999C154.7 43.5799 156.17 42.1599 157.89 42.1899ZM157.89 43.0699C156.64 43.0699 155.73 44.0199 155.73 45.2899C155.73 46.5599 156.64 47.5199 157.89 47.5199C159.14 47.5199 160.05 46.5699 160.05 45.2899C160.05 44.0099 159.12 43.0699 157.89 43.0699Z" fill="#009AE0"/>
<path d="M168.21 42.1902V48.3102H167.24V44.5302L165.52 46.7902H165.19L163.46 44.5202V48.3002H162.49V42.1802H162.83L165.36 45.5502L167.89 42.1802H168.22L168.21 42.1902Z" fill="#009AE0"/>
<path d="M170.03 42.29H172.23C173.44 42.29 174.27 43.05 174.27 44.13C174.27 45.21 173.44 45.98 172.23 45.98H171V48.31H170.03V42.29ZM172.21 45.13C172.89 45.13 173.28 44.74 173.28 44.15C173.28 43.56 172.9 43.16 172.21 43.16H171V45.14H172.21V45.13Z" fill="#009AE0"/>
<path d="M178.66 47.3099H175.95L175.52 48.3099H174.49L177.14 42.1899H177.47L180.12 48.3099H179.08L178.65 47.3099H178.66ZM177.31 43.9899L176.3 46.4799H178.32L177.32 43.9899H177.31Z" fill="#009AE0"/>
<path d="M186.19 42.2899V48.4099H185.86L182.19 44.2299V48.3099H181.22V42.1899H181.56L185.22 46.3499V42.2899H186.19Z" fill="#009AE0"/>
<path d="M190.37 45.88V48.31H189.4V45.88L187.32 42.29H188.4L189.89 44.91L191.39 42.29H192.46L190.38 45.88H190.37Z" fill="#009AE0"/>
</g>
<defs>
<clipPath id="clip0_1208_2437">
<rect width="264" height="56" fill="white"/>
</clipPath>
</defs>
</svg>
