<?xml version="1.0" encoding="UTF-8"?>
<svg xmlns="http://www.w3.org/2000/svg" xmlns:xlink="http://www.w3.org/1999/xlink" width="200px" height="200px" viewBox="0 0 200 200" version="1.1">
<g id="surface1">
<path style=" stroke:none;fill-rule:nonzero;fill:rgb(0%,0%,0%);fill-opacity:1;" d="M 54.167969 166.667969 C 41.5 166.667969 30.695312 162.304688 21.75 153.582031 C 12.804688 144.804688 8.332031 134.109375 8.332031 121.5 C 8.332031 110.667969 11.582031 101 18.082031 92.5 C 24.640625 84 33.195312 78.582031 43.75 76.25 C 46.140625 66.25 52.054688 56.75 61.5 47.75 C 70.890625 38.695312 80.945312 34.167969 91.667969 34.167969 C 96.277344 34.167969 100.195312 35.804688 103.417969 39.082031 C 106.695312 42.359375 108.332031 46.277344 108.332031 50.832031 L 108.332031 101.25 L 121.667969 88.332031 L 133.332031 100 L 100 133.332031 L 66.667969 100 L 78.332031 88.332031 L 91.667969 101.25 L 91.667969 50.832031 C 81.109375 52.777344 72.917969 57.890625 67.082031 66.167969 C 61.25 74.445312 58.332031 82.945312 58.332031 91.667969 L 54.167969 91.667969 C 46.109375 91.667969 39.25 94.527344 33.582031 100.25 C 27.859375 105.917969 25 112.777344 25 120.832031 C 25 128.890625 27.859375 135.832031 33.582031 141.667969 C 39.25 147.222656 46.109375 150 54.167969 150 L 154.167969 150 C 160 150 164.917969 147.972656 168.917969 143.917969 C 172.972656 139.917969 175 135 175 129.167969 C 175 123.332031 172.972656 118.417969 168.917969 114.417969 C 164.917969 110.359375 160 108.332031 154.167969 108.332031 L 141.667969 108.332031 L 141.667969 91.667969 C 141.667969 85 140.140625 78.777344 137.082031 73 C 134.027344 67.277344 130 62.390625 125 58.332031 L 125 39 C 135.277344 43.832031 143.417969 51 149.417969 60.5 C 155.359375 70.167969 158.332031 80.554688 158.332031 91.667969 C 167.945312 92.777344 175.890625 96.945312 182.167969 104.167969 C 188.5 111.277344 191.667969 119.609375 191.667969 129.167969 C 191.667969 139.609375 188.027344 148.472656 180.75 155.75 C 173.472656 163.027344 164.609375 166.667969 154.167969 166.667969 M 100 92.082031 Z M 100 92.082031 "/>
</g>
</svg>
