<?xml version="1.0" encoding="UTF-8"?>
<svg xmlns="http://www.w3.org/2000/svg" xmlns:xlink="http://www.w3.org/1999/xlink" width="145px" height="200px" viewBox="0 0 145 200" version="1.1">
<g id="surface1">
<path style=" stroke:none;fill-rule:evenodd;fill:rgb(82.745098%,21.960784%,20%);fill-opacity:1;" d="M 142.527344 96.421875 C 142.527344 136.03125 111.109375 168.136719 72.355469 168.136719 C 33.597656 168.136719 2.179688 136.03125 2.179688 96.421875 C 2.179688 56.816406 33.597656 24.707031 72.355469 24.707031 C 111.109375 24.707031 142.527344 56.816406 142.527344 96.421875 "/>
<path style=" stroke:none;fill-rule:nonzero;fill:rgb(93.72549%,23.921569%,22.745098%);fill-opacity:1;" d="M 5.039062 114.183594 C 5.039062 114.183594 -0.0390625 39.398438 68.929688 37.261719 L 64.121094 29.25 L 26.695312 41.800781 L 16 54.089844 L 6.644531 71.984375 L 1.296875 92.816406 L 2.902344 106.707031 "/>
<path style=" stroke:none;fill-rule:nonzero;fill:rgb(13.72549%,12.156863%,12.54902%);fill-opacity:1;" d="M 24.289062 47.5 C 11.980469 60.085938 4.359375 77.464844 4.359375 96.691406 C 4.359375 115.910156 11.980469 133.292969 24.289062 145.875 C 36.609375 158.460938 53.585938 166.226562 72.351562 166.226562 C 91.121094 166.226562 108.097656 158.460938 120.414062 145.875 C 132.726562 133.292969 140.347656 115.910156 140.347656 96.691406 C 140.347656 77.464844 132.726562 60.085938 120.414062 47.5 C 108.097656 34.917969 91.121094 27.152344 72.351562 27.152344 C 53.585938 27.152344 36.609375 34.917969 24.289062 47.5 Z M 21.175781 148.921875 C 8.089844 135.550781 0 117.074219 0 96.691406 C 0 76.304688 8.089844 57.828125 21.175781 44.457031 C 34.257812 31.085938 52.363281 22.796875 72.351562 22.796875 C 92.339844 22.796875 110.453125 31.085938 123.53125 44.457031 C 136.617188 57.828125 144.707031 76.308594 144.707031 96.691406 C 144.707031 117.074219 136.617188 135.550781 123.53125 148.921875 C 110.453125 162.292969 92.339844 170.582031 72.351562 170.582031 C 52.363281 170.582031 34.257812 162.292969 21.175781 148.921875 "/>
<path style=" stroke:none;fill-rule:evenodd;fill:rgb(94.117647%,83.921569%,71.764706%);fill-opacity:1;" d="M 101.894531 96.820312 L 91.199219 98.421875 L 76.765625 100.027344 L 67.40625 100.292969 L 58.316406 100.027344 L 51.367188 97.886719 L 45.21875 91.210938 L 40.40625 77.589844 L 39.335938 74.652344 L 32.921875 72.515625 L 29.179688 66.371094 L 26.503906 57.558594 L 29.445312 49.8125 L 36.398438 47.40625 L 42.011719 50.078125 L 44.683594 55.957031 L 47.890625 55.421875 L 48.960938 54.085938 L 47.890625 47.941406 L 47.625 40.195312 L 49.226562 29.511719 L 49.164062 23.410156 L 54.039062 15.625 L 62.59375 9.480469 L 77.566406 3.070312 L 94.140625 5.472656 L 108.574219 15.890625 L 115.257812 26.574219 L 119.535156 34.320312 L 120.605469 53.550781 L 117.398438 70.113281 L 111.515625 84.800781 L 105.902344 92.546875 "/>
<path style=" stroke:none;fill-rule:evenodd;fill:rgb(20%,31.372549%,38.039216%);fill-opacity:1;" d="M 92.804688 143.027344 L 54.574219 144.628906 L 54.574219 151.039062 L 57.78125 173.476562 L 56.179688 175.347656 L 29.445312 166.265625 L 27.574219 163.058594 L 24.902344 132.878906 L 18.753906 114.714844 L 17.417969 110.441406 L 38.800781 95.753906 L 45.488281 93.082031 L 51.367188 100.292969 L 56.445312 104.832031 L 62.328125 106.703125 L 65 107.503906 L 68.210938 121.394531 L 70.613281 124.332031 L 76.765625 122.195312 L 72.484375 130.472656 L 95.742188 141.425781 L 92.804688 143.027344 "/>
<path style=" stroke:none;fill-rule:evenodd;fill:rgb(42.745098%,41.960784%,42.745098%);fill-opacity:1;" d="M 29.445312 49.8125 L 36.398438 47.40625 L 42.011719 50.078125 L 44.683594 55.957031 L 47.890625 55.421875 L 48.695312 52.214844 L 47.089844 46.074219 L 48.695312 31.382812 L 47.355469 23.371094 L 52.167969 17.761719 L 62.59375 9.480469 L 59.65625 5.472656 L 44.953125 12.6875 L 38.800781 17.492188 L 35.328125 24.972656 L 29.980469 32.183594 L 28.375 40.730469 L 29.445312 49.8125 "/>
<path style=" stroke:none;fill-rule:evenodd;fill:rgb(86.27451%,85.098039%,84.705882%);fill-opacity:1;" d="M 40.40625 24.707031 C 40.40625 24.707031 44.417969 14.824219 60.457031 10.015625 C 76.496094 5.207031 61.257812 6.542969 61.257812 6.542969 L 43.882812 13.21875 L 37.199219 19.898438 L 34.257812 25.238281 L 40.40625 24.707031 "/>
<path style=" stroke:none;fill-rule:evenodd;fill:rgb(86.27451%,85.098039%,84.705882%);fill-opacity:1;" d="M 32.386719 47.941406 C 32.386719 47.941406 26.773438 29.246094 48.160156 26.574219 L 47.355469 23.371094 L 32.65625 26.84375 L 28.375 40.730469 L 29.445312 49.8125 L 32.386719 47.941406 "/>
<path style=" stroke:none;fill-rule:evenodd;fill:rgb(96.862745%,89.411765%,80.392157%);fill-opacity:1;" d="M 40.941406 72.78125 L 44.441406 69.394531 C 44.441406 69.394531 46.019531 69.578125 46.289062 71.445312 C 46.554688 73.316406 47.355469 90.144531 58.851562 99.226562 C 59.902344 100.054688 50.296875 97.886719 50.296875 97.886719 L 41.742188 84.535156 "/>
<path style=" stroke:none;fill-rule:evenodd;fill:rgb(96.862745%,89.411765%,80.392157%);fill-opacity:1;" d="M 90.132812 67.707031 C 90.132812 67.707031 90.753906 59.613281 92.9375 60.234375 C 95.121094 60.855469 95.121094 63.035156 95.121094 63.035156 C 95.121094 63.035156 89.820312 66.460938 90.132812 67.707031 "/>
<path style=" stroke:none;fill-rule:nonzero;fill:rgb(96.862745%,89.411765%,80.392157%);fill-opacity:1;" d="M 112.320312 38.058594 C 112.320312 38.058594 107.914062 38.988281 107.507812 42.867188 C 107.101562 46.746094 112.320312 43.667969 113.121094 43.402344 "/>
<path style=" stroke:none;fill-rule:nonzero;fill:rgb(96.862745%,89.411765%,80.392157%);fill-opacity:1;" d="M 79.972656 38.328125 C 79.972656 38.328125 74.089844 39.128906 74.089844 42.867188 C 74.089844 46.605469 80.773438 46.339844 82.644531 44.738281 "/>
<path style=" stroke:none;fill-rule:evenodd;fill:rgb(96.862745%,89.411765%,80.392157%);fill-opacity:1;" d="M 43.613281 55.6875 C 43.613281 55.6875 33.457031 49.542969 32.386719 55.421875 C 31.316406 61.296875 28.910156 65.570312 33.992188 71.714844 L 30.515625 70.644531 L 27.308594 62.367188 L 26.238281 54.351562 L 32.386719 47.941406 L 39.335938 48.476562 L 43.347656 51.683594 L 43.613281 55.6875 "/>
<path style=" stroke:none;fill-rule:evenodd;fill:rgb(96.862745%,89.411765%,80.392157%);fill-opacity:1;" d="M 48.425781 38.863281 C 48.425781 38.863281 52.972656 15.355469 75.960938 10.816406 C 94.890625 7.078125 104.832031 11.617188 108.574219 15.890625 C 108.574219 15.890625 91.734375 -4.140625 75.695312 2.003906 C 59.65625 8.144531 47.890625 19.363281 48.160156 26.574219 C 48.613281 38.855469 48.425781 38.863281 48.425781 38.863281 "/>
<path style=" stroke:none;fill-rule:evenodd;fill:rgb(96.862745%,89.411765%,80.392157%);fill-opacity:1;" d="M 110.449219 18.5625 C 110.449219 18.5625 102.695312 18.292969 102.429688 25.238281 C 102.429688 25.238281 102.425781 26.308594 102.960938 27.375 C 102.960938 27.375 109.113281 20.429688 112.855469 24.171875 "/>
<path style=" stroke:none;fill-rule:evenodd;fill:rgb(96.862745%,89.411765%,80.392157%);fill-opacity:1;" d="M 76.5 28.097656 C 76.5 28.097656 75.167969 17.441406 66.070312 23.636719 C 60.1875 27.644531 60.722656 33.253906 61.792969 34.320312 C 62.863281 35.390625 62.570312 37.539062 63.386719 36.0625 C 64.199219 34.585938 63.929688 29.78125 66.871094 28.445312 C 69.8125 27.109375 74.632812 25.617188 76.5 28.097656 "/>
<path style=" stroke:none;fill-rule:evenodd;fill:rgb(28.627451%,44.705882%,54.509804%);fill-opacity:1;" d="M 51.367188 100.292969 L 26.238281 111.511719 C 26.238281 111.511719 36.664062 152.910156 31.316406 165.730469 L 27.574219 164.394531 L 27.308594 148.636719 L 20.359375 118.722656 L 17.417969 110.441406 L 43.613281 92.816406 L 51.367188 100.292969 "/>
<path style=" stroke:none;fill-rule:evenodd;fill:rgb(28.627451%,44.705882%,54.509804%);fill-opacity:1;" d="M 53.949219 123.191406 L 57.515625 127.535156 L 57.515625 143.5625 L 53.238281 143.5625 C 53.238281 143.5625 52.703125 132.34375 52.703125 131.007812 C 52.703125 129.671875 53.238281 124.867188 53.238281 124.867188 "/>
<path style=" stroke:none;fill-rule:evenodd;fill:rgb(28.627451%,44.705882%,54.509804%);fill-opacity:1;" d="M 54.039062 145.964844 L 42.011719 146.5 L 45.488281 148.902344 L 54.039062 150.238281 "/>
<path style=" stroke:none;fill-rule:evenodd;fill:rgb(20%,31.372549%,38.039216%);fill-opacity:1;" d="M 95.210938 143.292969 L 105.101562 143.027344 L 107.507812 167.601562 L 97.347656 168.9375 L 95.210938 143.292969 "/>
<path style=" stroke:none;fill-rule:evenodd;fill:rgb(20%,31.372549%,38.039216%);fill-opacity:1;" d="M 97.882812 143.292969 L 112.855469 142.492188 C 112.855469 142.492188 119 127.003906 119 126.199219 C 119 125.398438 124.347656 103.765625 124.347656 103.765625 L 112.320312 91.210938 L 109.914062 89.074219 L 103.496094 95.484375 L 103.496094 120.324219 L 97.882812 143.292969 "/>
<path style=" stroke:none;fill-rule:evenodd;fill:rgb(28.627451%,44.705882%,54.509804%);fill-opacity:1;" d="M 104.566406 141.425781 L 95.210938 143.292969 L 96.546875 150.773438 C 100.019531 152.375 105.902344 148.101562 105.902344 148.101562 "/>
<path style=" stroke:none;fill-rule:evenodd;fill:rgb(28.627451%,44.705882%,54.509804%);fill-opacity:1;" d="M 104.832031 94.683594 L 123.546875 108.574219 L 124.082031 102.164062 L 109.914062 89.074219 L 104.832031 94.683594 "/>
<path style=" stroke:none;fill-rule:evenodd;fill:rgb(100%,100%,100%);fill-opacity:1;" d="M 63.316406 195.914062 L 57.78125 173.476562 L 55.03125 156.917969 L 54.574219 144.628906 L 79.625 143.296875 L 95.210938 143.292969 L 93.792969 171.34375 L 96.199219 192.976562 L 95.933594 196.984375 L 75.617188 198.585938 L 63.316406 195.914062 "/>
<path style=" stroke:none;fill-rule:evenodd;fill:rgb(86.27451%,85.098039%,84.705882%);fill-opacity:1;" d="M 91.734375 143.027344 C 91.734375 143.027344 90.398438 170.804688 94.40625 190.570312 C 94.40625 190.570312 86.386719 195.644531 74.625 196.980469 L 97.082031 196.179688 L 99.753906 194.578125 L 96.546875 150.773438 L 95.742188 141.425781 "/>
<path style=" stroke:none;fill-rule:evenodd;fill:rgb(100%,100%,100%);fill-opacity:1;" d="M 107.960938 165.464844 L 118.386719 162.527344 L 138.171875 161.460938 L 141.109375 152.378906 L 135.765625 136.621094 L 129.617188 135.820312 L 121.0625 138.488281 L 112.855469 142.492188 L 108.496094 141.695312 L 105.101562 143.027344 "/>
<path style=" stroke:none;fill-rule:evenodd;fill:rgb(86.27451%,85.098039%,84.705882%);fill-opacity:1;" d="M 107.773438 160.121094 C 107.773438 160.121094 114.722656 156.917969 115.792969 157.183594 L 112.855469 142.492188 L 116.328125 141.160156 C 116.328125 141.160156 118.734375 155.046875 118.734375 156.648438 C 118.734375 156.648438 133.703125 157.449219 135.042969 157.449219 C 135.042969 157.449219 138.25 151.308594 137.449219 144.898438 L 140.386719 153.445312 L 140.65625 158.253906 L 136.378906 164.664062 L 131.566406 165.730469 L 123.546875 165.464844 L 120.875 161.992188 L 111.515625 163.328125 L 108.574219 164.394531 "/>
<path style=" stroke:none;fill-rule:nonzero;fill:rgb(100%,100%,100%);fill-opacity:1;" d="M 97.269531 141.160156 L 91.386719 126.203125 L 85.238281 117.390625 C 85.238281 117.390625 86.574219 113.648438 88.445312 113.648438 C 90.320312 113.648438 94.59375 113.648438 94.59375 113.648438 L 100.476562 115.785156 L 99.941406 125.667969 L 97.269531 141.160156 "/>
<path style=" stroke:none;fill-rule:evenodd;fill:rgb(86.27451%,85.098039%,84.705882%);fill-opacity:1;" d="M 98.417969 136.082031 C 98.417969 136.082031 90.933594 121.660156 90.933594 119.523438 C 90.933594 119.523438 92.269531 116.320312 94.140625 117.121094 C 96.011719 117.921875 100.023438 120.058594 100.023438 120.058594 L 100.023438 114.984375 L 90.933594 113.113281 L 84.785156 113.914062 L 95.210938 138.488281 L 97.347656 138.753906 "/>
<path style=" stroke:none;fill-rule:nonzero;fill:rgb(100%,100%,100%);fill-opacity:1;" d="M 65.722656 100.832031 L 58.316406 100.027344 L 51.367188 97.886719 L 51.367188 100.292969 L 54.761719 104.035156 L 65.457031 108.84375 "/>
<path style=" stroke:none;fill-rule:evenodd;fill:rgb(86.27451%,85.098039%,84.705882%);fill-opacity:1;" d="M 53.773438 101.628906 C 53.773438 101.628906 62.0625 105.101562 64.734375 104.300781 L 65 107.503906 L 57.515625 105.90625 L 52.972656 102.699219 L 53.773438 101.628906 "/>
<path style=" stroke:none;fill-rule:evenodd;fill:rgb(82.745098%,21.960784%,20%);fill-opacity:1;" d="M 107.933594 114.558594 C 103.398438 114.425781 99.300781 113.886719 95.710938 112.875 C 95.953125 111.40625 95.5 109.964844 95.863281 108.90625 C 96.867188 108.1875 98.542969 108.199219 100.054688 108.027344 C 98.746094 107.386719 96.910156 107.132812 95.402344 107.503906 C 95.367188 106.484375 94.90625 105.851562 94.628906 105.054688 C 97.179688 104.144531 103.199219 98.183594 106.585938 100.15625 C 108.203125 101.09375 108.886719 106.460938 109.011719 109.066406 C 109.117188 111.230469 108.816406 113.414062 107.933594 114.558594 "/>
<path style="fill:none;stroke-width:2;stroke-linecap:butt;stroke-linejoin:miter;stroke:rgb(82.745098%,21.960784%,20%);stroke-opacity:1;stroke-miterlimit:4;" d="M 134.582026 106.630875 C 128.927155 106.796625 123.817802 107.469375 119.341638 108.732 C 119.643621 110.565 119.078621 112.363875 119.531595 113.685 C 120.783362 114.582 122.872888 114.567375 124.757845 114.781875 C 123.126164 115.581375 120.83694 115.89825 118.956853 115.435125 C 118.913017 116.7075 118.338276 117.49725 117.992457 118.49175 C 121.173017 119.627625 128.67875 127.066875 132.901638 124.605 C 134.918103 123.435 135.770474 116.73675 135.926336 113.485125 C 136.057845 110.784375 135.682802 108.05925 134.582026 106.630875 Z M 134.582026 106.630875 " transform="matrix(0.801991,0,0,-0.801282,0,200)"/>
<path style=" stroke:none;fill-rule:evenodd;fill:rgb(82.745098%,21.960784%,20%);fill-opacity:1;" d="M 86.242188 107.152344 C 86.230469 107.492188 86.214844 107.839844 86.203125 108.183594 C 84.785156 109.113281 82.5 109.101562 80.945312 109.882812 C 83.234375 109.984375 85.039062 110.535156 86.601562 111.3125 C 86.566406 112.175781 86.535156 113.039062 86.5 113.902344 C 83.902344 115.679688 81.53125 118.324219 78.476562 119.988281 C 77.03125 120.777344 71.957031 122.800781 70.421875 122.445312 C 69.550781 122.242188 69.472656 121.164062 69.125 120.148438 C 68.382812 117.96875 66.679688 114.503906 66.527344 111.226562 C 66.339844 107.089844 65.921875 100.152344 70.386719 101.003906 C 73.988281 101.691406 78.179688 103.347656 80.964844 104.871094 C 82.671875 105.800781 83.65625 106.953125 86.242188 107.152344 "/>
<path style="fill:none;stroke-width:2;stroke-linecap:butt;stroke-linejoin:miter;stroke:rgb(82.745098%,21.960784%,20%);stroke-opacity:1;stroke-miterlimit:4;" d="M 107.535086 115.873875 C 107.520474 115.44975 107.500991 115.015875 107.486379 114.586875 C 105.718319 113.426625 102.868966 113.44125 100.930431 112.46625 C 103.784655 112.3395 106.034914 111.652125 107.98319 110.682 C 107.939353 109.604625 107.900388 108.52725 107.856552 107.449875 C 104.617543 105.23175 101.661034 101.931375 97.852155 99.854625 C 96.05 98.869875 89.722974 96.344625 87.808793 96.78825 C 86.722629 97.04175 86.625216 98.38725 86.191724 99.65475 C 85.266293 102.375 83.142672 106.699125 82.952716 110.78925 C 82.718922 115.951875 82.197759 124.609875 87.764957 123.547125 C 92.255733 122.689125 97.481983 120.622125 100.954784 118.720875 C 103.083276 117.560625 104.31069 116.1225 107.535086 115.873875 Z M 107.535086 115.873875 " transform="matrix(0.801991,0,0,-0.801282,0,200)"/>
<path style=" stroke:none;fill-rule:evenodd;fill:rgb(82.745098%,21.960784%,20%);fill-opacity:1;" d="M 88.820312 112.089844 C 88.425781 109.835938 87.964844 109.191406 88.144531 107.222656 C 94.164062 103.214844 95.292969 114.113281 88.820312 112.089844 "/>
<path style="fill:none;stroke-width:2;stroke-linecap:butt;stroke-linejoin:miter;stroke:rgb(82.745098%,21.960784%,20%);stroke-opacity:1;stroke-miterlimit:4;" d="M 110.749741 109.711875 C 110.257802 112.52475 109.68306 113.329125 109.907112 115.786125 C 117.412845 120.787875 118.820474 107.186625 110.749741 109.711875 Z M 110.749741 109.711875 " transform="matrix(0.801991,0,0,-0.801282,0,200)"/>
<path style=" stroke:none;fill-rule:evenodd;fill:rgb(93.72549%,23.921569%,22.745098%);fill-opacity:1;" d="M 97.535156 113.917969 C 97.535156 113.917969 95.664062 111.246094 97 110.445312 C 98.335938 109.644531 99.675781 110.445312 100.476562 109.109375 C 101.277344 107.773438 100.476562 106.972656 100.742188 105.371094 C 101.011719 103.769531 102.347656 103.5 103.683594 103.234375 C 105.019531 102.964844 108.765625 102.433594 109.296875 103.769531 L 107.695312 98.960938 L 104.488281 97.890625 L 94.328125 103.769531 L 93.792969 106.707031 L 93.792969 112.582031 "/>
<path style=" stroke:none;fill-rule:evenodd;fill:rgb(93.72549%,23.921569%,22.745098%);fill-opacity:1;" d="M 69.464844 122.730469 C 69.144531 118.5625 68.804688 114.402344 68.425781 110.238281 C 67.859375 104.019531 69.921875 105.101562 75.316406 105.101562 C 76.140625 105.101562 80.390625 106.085938 80.695312 106.707031 C 82.152344 109.679688 78.257812 109.019531 82.375 111.261719 C 85.847656 113.15625 91.988281 110.113281 90.585938 105.90625 C 89.800781 104.96875 86.488281 105.613281 85.304688 105 C 83.214844 103.917969 81.128906 102.835938 79.039062 101.753906 C 76.382812 100.375 70.238281 98.367188 67.40625 100.292969 C 60.230469 105.167969 67.859375 117.355469 70.421875 122.445312 "/>
<path style=" stroke:none;fill-rule:evenodd;fill:rgb(13.72549%,12.156863%,12.54902%);fill-opacity:1;" d="M 76.5 28.097656 C 69.214844 26.402344 65.59375 31.144531 63.386719 36.0625 C 61.414062 35.585938 62.199219 32.90625 62.695312 31.542969 C 64 27.957031 69.257812 23.1875 73.550781 23.835938 C 75.398438 24.113281 77.898438 25.800781 76.5 28.097656 "/>
<path style=" stroke:none;fill-rule:evenodd;fill:rgb(13.72549%,12.156863%,12.54902%);fill-opacity:1;" d="M 112.003906 36.390625 C 112.117188 36.394531 112.234375 36.398438 112.347656 36.402344 C 113.996094 39.820312 115.417969 43.441406 117.496094 46.457031 C 116.105469 49.695312 106.960938 52.5625 107.101562 46.746094 C 109.078125 45.882812 112.492188 46.570312 114.246094 45.46875 C 113.230469 42.6875 111.769531 40.320312 112.003906 36.390625 "/>
<path style=" stroke:none;fill-rule:evenodd;fill:rgb(13.72549%,12.156863%,12.54902%);fill-opacity:1;" d="M 80.230469 36.476562 C 81.792969 39.339844 82.300781 42.347656 84.523438 44.507812 C 85.523438 45.480469 87.46875 46.667969 86.503906 49.375 C 86.277344 50.015625 84.632812 51.4375 83.679688 51.71875 C 80.210938 52.742188 72.121094 51.929688 74.859375 47.605469 C 77.730469 47.738281 81.589844 49.46875 83.734375 47.386719 C 82.085938 44.753906 79.148438 39.546875 80.230469 36.476562 "/>
<path style=" stroke:none;fill-rule:evenodd;fill:rgb(13.72549%,12.156863%,12.54902%);fill-opacity:1;" d="M 110.699219 65.558594 C 105.472656 68.914062 99.644531 72.5625 91.078125 71.71875 C 89.246094 70.128906 88.550781 66.589844 90.328125 64.253906 C 91.253906 65.84375 90.671875 68.765625 93.25 69.207031 C 98.109375 70.039062 103.765625 66.238281 107.261719 64.90625 C 109.429688 61.257812 107.078125 59.914062 105.125 57.5625 C 101.125 52.75 95.761719 46.78125 95.957031 39.570312 C 97.574219 38.402344 97.714844 41.359375 97.945312 41.898438 C 100.03125 46.777344 105.285156 53.023438 109.121094 57.199219 C 110.0625 58.226562 111.613281 59.214844 111.785156 59.894531 C 112.28125 61.875 110.492188 64.246094 110.699219 65.558594 "/>
<path style=" stroke:none;fill-rule:evenodd;fill:rgb(13.72549%,12.156863%,12.54902%);fill-opacity:1;" d="M 41.785156 62.027344 C 40.148438 61.09375 39.757812 56.976562 37.832031 56.863281 C 35.085938 56.695312 35.585938 62.199219 35.597656 65.417969 C 33.703125 63.703125 33.371094 58.417969 34.761719 55.707031 C 33.175781 54.929688 32.46875 56.5625 31.589844 57.136719 C 32.71875 48.941406 43.59375 53.335938 41.785156 62.027344 "/>
<path style=" stroke:none;fill-rule:evenodd;fill:rgb(13.72549%,12.156863%,12.54902%);fill-opacity:1;" d="M 114.027344 68.972656 C 111.59375 73.601562 108.152344 78.695312 101.011719 78.84375 C 100.867188 77.351562 100.753906 75.078125 101.019531 74.175781 C 106.476562 73.652344 109.847656 70.878906 114.027344 68.972656 "/>
<path style=" stroke:none;fill-rule:evenodd;fill:rgb(13.72549%,12.156863%,12.54902%);fill-opacity:1;" d="M 79.820312 71.972656 C 84.375 74.367188 92.742188 74.625 98.933594 74.441406 C 99.265625 75.796875 99.257812 77.472656 99.269531 79.125 C 91.3125 79.519531 81.90625 77.554688 79.820312 71.972656 "/>
<path style=" stroke:none;fill-rule:evenodd;fill:rgb(13.72549%,12.156863%,12.54902%);fill-opacity:1;" d="M 78.953125 76.433594 C 82.101562 84.335938 92.925781 83.425781 102.054688 83.207031 C 101.652344 84.234375 100.78125 85.445312 99.699219 85.882812 C 96.773438 87.070312 88.707031 87.972656 84.644531 85.820312 C 82.070312 84.453125 80.417969 81.363281 79.003906 79.550781 C 78.324219 78.675781 74.929688 76.441406 78.953125 76.433594 "/>
<path style=" stroke:none;fill-rule:evenodd;fill:rgb(50.588235%,69.019608%,76.862745%);fill-opacity:1;" d="M 110.320312 120.011719 C 106.625 126.335938 103.085938 132.828125 98.703125 138.40625 C 100.539062 133.007812 101.328125 123.96875 101.605469 117.082031 C 105.449219 115.28125 108.742188 117.484375 110.320312 120.011719 "/>
<path style=" stroke:none;fill-rule:evenodd;fill:rgb(13.72549%,12.156863%,12.54902%);fill-opacity:1;" d="M 130.203125 142.738281 C 126.066406 143.566406 123.160156 147.585938 119.125 147.328125 C 121.34375 144.203125 125.230469 142.886719 130.203125 142.738281 "/>
<path style=" stroke:none;fill-rule:evenodd;fill:rgb(13.72549%,12.156863%,12.54902%);fill-opacity:1;" d="M 132.03125 149.210938 C 128.65625 149.566406 124.695312 150.109375 121.277344 149.828125 C 122.894531 147.359375 129.132812 148.210938 132.03125 149.210938 "/>
<path style=" stroke:none;fill-rule:evenodd;fill:rgb(13.72549%,12.156863%,12.54902%);fill-opacity:1;" d="M 133.199219 154.785156 C 129.410156 154.867188 124.699219 154.792969 121.09375 154.492188 C 123.226562 152.203125 130.742188 153.644531 133.199219 154.785156 "/>
<path style=" stroke:none;fill-rule:evenodd;fill:rgb(86.27451%,85.098039%,84.705882%);fill-opacity:1;" d="M 103.1875 170.050781 C 103.730469 174.804688 105.617188 179.625 105.382812 184.832031 C 103.285156 185.539062 102.082031 186.15625 99.273438 186.152344 C 99.078125 181.726562 98.484375 174.960938 98.660156 170.742188 C 100.042969 170.832031 102.078125 169.753906 103.1875 170.050781 "/>
<path style=" stroke:none;fill-rule:evenodd;fill:rgb(94.117647%,83.921569%,71.764706%);fill-opacity:1;" d="M 97.078125 99.960938 C 95.175781 101.203125 93.554688 102.75 91.726562 104.078125 C 87.671875 104.277344 85.460938 103.796875 82.480469 101.472656 C 82.53125 101.285156 82.832031 101.367188 82.839844 101.136719 C 87.179688 103.070312 92.695312 100.351562 97.078125 99.960938 "/>
<path style=" stroke:none;fill-rule:evenodd;fill:rgb(50.588235%,69.019608%,76.862745%);fill-opacity:1;" d="M 74.300781 129.511719 C 75.492188 124.347656 80.164062 121.675781 84.40625 118.835938 C 88.78125 124.386719 91.445312 131.523438 94.378906 138.414062 C 87.449219 136.328125 80.371094 132.941406 74.300781 129.511719 "/>
<path style=" stroke:none;fill-rule:evenodd;fill:rgb(13.72549%,12.156863%,12.54902%);fill-opacity:1;" d="M 98.660156 170.742188 C 98.484375 174.960938 99.078125 181.726562 99.273438 186.152344 C 102.082031 186.15625 103.285156 185.539062 105.382812 184.832031 C 105.617188 179.625 103.730469 174.804688 103.1875 170.050781 C 102.078125 169.753906 100.042969 170.832031 98.660156 170.742188 Z M 54.941406 146.742188 C 56.792969 163.75 59.472656 178.042969 64.394531 193.101562 C 75.308594 196.414062 88.46875 196.703125 98.117188 193.714844 C 96.34375 185.214844 97.121094 174.867188 96.085938 165.796875 C 95.304688 158.980469 95.703125 152.121094 94.632812 145.167969 C 82.941406 142.738281 66.414062 144.597656 54.941406 146.742188 Z M 97.394531 145.273438 C 97.296875 152.578125 97.722656 159.78125 98.28125 167.09375 C 101.089844 166.671875 102.992188 166.390625 105.601562 165.820312 C 104.753906 158.78125 104.859375 150.859375 103.132812 144.632812 C 101.140625 144.652344 99.382812 144.609375 97.394531 145.273438 Z M 111.636719 144.097656 C 110.304688 143.792969 108.753906 144.085938 107.480469 144.109375 C 108.078125 150.0625 109.53125 156.632812 110.039062 162.882812 C 112.042969 162.945312 113.113281 162 114.761719 161.683594 C 114.847656 156.195312 114.28125 148.640625 111.636719 144.097656 Z M 133.195312 163.777344 C 137.371094 162.765625 139.996094 157.65625 138.828125 152.410156 C 138.042969 148.886719 136.648438 142.246094 135.15625 139.992188 C 134.050781 138.324219 131.058594 136.140625 128.671875 137.667969 C 124.785156 140.152344 117.9375 140.875 115.101562 143.886719 C 116.523438 148.613281 116.964844 155.105469 117.550781 161.097656 C 122.40625 161.398438 128.382812 159.761719 132.417969 161.5 C 129.601562 162.410156 125.941406 162.417969 123.507812 163.75 C 125.496094 164.710938 130.15625 164.515625 133.195312 163.777344 Z M 94.378906 138.414062 C 91.445312 131.523438 88.78125 124.386719 84.40625 118.835938 C 80.164062 121.675781 75.492188 124.347656 74.300781 129.511719 C 80.371094 132.941406 87.449219 136.328125 94.378906 138.414062 Z M 101.605469 117.082031 C 101.328125 123.96875 100.539062 133.007812 98.703125 138.40625 C 103.085938 132.828125 106.625 126.335938 110.320312 120.011719 C 108.742188 117.484375 105.449219 115.28125 101.605469 117.082031 Z M 93.410156 114.171875 C 91.75 113.992188 90.339844 116.078125 88.179688 115.175781 C 87.6875 115.722656 87.238281 116.316406 86.730469 116.847656 C 91.503906 122.59375 93.671875 130.742188 97.355469 137.492188 C 99.332031 131.007812 99.105469 123.90625 99.539062 116.828125 C 96.824219 117 95.316406 114.375 93.410156 114.171875 Z M 88.144531 107.222656 C 87.964844 109.191406 88.425781 109.835938 88.820312 112.089844 C 95.292969 114.113281 94.164062 103.214844 88.144531 107.222656 Z M 80.964844 104.871094 C 78.179688 103.347656 73.988281 101.691406 70.386719 101.003906 C 65.921875 100.148438 66.339844 107.089844 66.527344 111.226562 C 66.679688 114.503906 68.382812 117.96875 69.125 120.148438 C 69.472656 121.164062 69.550781 122.242188 70.421875 122.445312 C 71.957031 122.800781 77.03125 120.777344 78.476562 119.988281 C 81.53125 118.324219 83.902344 115.679688 86.5 113.902344 C 86.535156 113.039062 86.566406 112.175781 86.601562 111.3125 C 85.039062 110.535156 83.234375 109.984375 80.945312 109.882812 C 82.5 109.101562 84.785156 109.113281 86.203125 108.183594 C 86.214844 107.839844 86.230469 107.492188 86.242188 107.152344 C 83.65625 106.953125 82.671875 105.800781 80.964844 104.871094 Z M 54.328125 100.035156 C 52.015625 102.382812 60.820312 105.585938 63.625 105.757812 C 63.609375 104.269531 64.472656 102.871094 64.296875 101.804688 C 60.96875 101.21875 56.59375 101.605469 54.328125 100.035156 Z M 82.839844 101.136719 C 82.832031 101.367188 82.53125 101.285156 82.480469 101.472656 C 85.460938 103.796875 87.671875 104.277344 91.726562 104.078125 C 93.554688 102.75 95.175781 101.203125 97.078125 99.960938 C 92.695312 100.351562 87.179688 103.070312 82.839844 101.136719 Z M 109.011719 109.066406 C 108.886719 106.460938 108.203125 101.09375 106.585938 100.15625 C 103.199219 98.179688 97.179688 104.144531 94.628906 105.054688 C 94.90625 105.851562 95.367188 106.484375 95.402344 107.503906 C 96.910156 107.132812 98.746094 107.386719 100.054688 108.027344 C 98.542969 108.199219 96.867188 108.1875 95.863281 108.90625 C 95.5 109.964844 95.953125 111.40625 95.710938 112.875 C 99.300781 113.886719 103.398438 114.425781 107.933594 114.558594 C 108.816406 113.414062 109.117188 111.230469 109.011719 109.066406 Z M 50.433594 102.308594 C 49.707031 101.789062 44.789062 95.398438 44.117188 95.664062 C 35.21875 99.167969 26.898438 105.230469 19.464844 110.964844 C 26.554688 126.160156 29.414062 144.777344 29.921875 162.71875 C 38.039062 166.511719 45.171875 171.984375 56.191406 172.554688 C 54.914062 163.542969 53.75 155.5 53.027344 147.015625 C 50.257812 145.847656 46.285156 147.066406 43.695312 146.652344 C 43.675781 143.535156 47.652344 145.289062 47.984375 143.191406 C 48.234375 141.601562 45.796875 141.484375 46.589844 138.984375 C 48.613281 139.71875 49.679688 141.34375 51.839844 141.957031 C 53.8125 137.640625 51.808594 130.007812 52.09375 126.402344 C 52.148438 125.726562 52.433594 122.652344 53.949219 123.191406 C 55.292969 123.667969 53.875 131.367188 54.023438 134.777344 C 54.15625 137.921875 53.640625 140.964844 54.917969 142.9375 C 65.5625 141.492188 76.382812 140.554688 87.902344 140.238281 C 85.367188 139.152344 82.355469 138.125 79.054688 136.265625 C 77.265625 135.257812 71.625 133.160156 71.109375 131.460938 C 70.285156 128.757812 73.269531 127.316406 73.78125 124.996094 C 68.40625 127.921875 67.359375 122.1875 66.085938 118.125 C 64.9375 114.445312 64.28125 111.695312 63.996094 109.574219 C 59.367188 107.367188 54.417969 105.132812 50.433594 102.308594 Z M 104.308594 96.4375 C 111.722656 92.84375 113.058594 109.859375 110.152344 115.339844 C 110.601562 116.972656 112.148438 117.597656 112.777344 119.070312 C 108.640625 126.472656 104.046875 133.382812 99.824219 140.699219 C 102.964844 138.746094 107.449219 140.351562 111.144531 138.890625 C 112.496094 138.355469 113.472656 135.265625 114.496094 132.796875 C 117.308594 125.996094 120.261719 117.425781 121.574219 110.9375 C 121.871094 109.460938 122.679688 106.238281 122.5 104.921875 C 122.175781 102.566406 118.976562 100.820312 117.347656 99.363281 C 114.351562 96.671875 112.464844 94.304688 109.335938 91.789062 C 108.066406 93.660156 105.347656 94.914062 104.308594 96.4375 Z M 33.480469 30.757812 C 29.949219 34.640625 30.6875 41.914062 31.113281 47.089844 C 37.5 43.078125 45.972656 47.410156 45.894531 54.234375 C 48.941406 54.152344 47.03125 50.429688 46.480469 48.03125 C 44.679688 40.199219 49.515625 31.6875 46.699219 24.523438 C 41.230469 24.9375 36.738281 27.171875 33.480469 30.757812 Z M 58.753906 8.21875 C 50.757812 10.484375 40.507812 16.289062 37.222656 23.464844 C 39.765625 23.097656 41.535156 21.816406 44.042969 21.65625 C 44.992188 21.59375 46.234375 22.054688 47.324219 21.78125 C 49.496094 21.246094 51.332031 16.378906 52.96875 14.566406 C 54.566406 12.796875 56.488281 12.042969 57.804688 10.429688 C 58.648438 10.023438 59.894531 10.050781 59.945312 8.785156 C 59.578125 8.394531 59.191406 8.09375 58.753906 8.21875 Z M 100.378906 10.347656 C 92.078125 5.671875 78.03125 2.152344 69.203125 6.550781 C 62.078125 10.097656 52.449219 15.96875 49.164062 23.410156 C 52.234375 30.589844 48.257812 37.167969 48.003906 44.460938 C 47.867188 48.339844 49.832031 51.726562 49.980469 55.949219 C 48.933594 57.679688 45.726562 57.890625 43.507812 57.773438 C 42.757812 54.035156 41.453125 49.839844 37.601562 49.417969 C 32.152344 48.820312 28.171875 53.324219 27.921875 58.035156 C 27.628906 63.570312 32.179688 72.746094 38.625 72.109375 C 41.117188 71.863281 41.726562 69.367188 44.441406 69.394531 C 45.914062 72.324219 42.171875 73.246094 41.789062 75.34375 C 41.6875 75.882812 42.097656 78 42.335938 78.996094 C 43.507812 83.828125 46.117188 90.085938 48.6875 93.765625 C 51.949219 98.433594 58.355469 99.136719 65.25 99.59375 C 66.480469 96.945312 71.015625 97.164062 73.972656 97.855469 C 70.429688 96.453125 67.136719 93.058594 64.410156 90.050781 C 61.273438 86.597656 58.097656 82.898438 57.9375 78.386719 C 63.863281 86.597656 68.753906 93.769531 79.527344 97.378906 C 87.675781 100.109375 97.191406 96.128906 103.457031 91.734375 C 106.054688 89.910156 107.605469 87.011719 109.453125 84.359375 C 116.363281 74.425781 119.585938 60.25 118.878906 46.511719 C 118.585938 40.84375 118.597656 35.195312 116.695312 31.382812 C 114.707031 27.398438 107.980469 23.832031 104.042969 27.4375 C 103.3125 23.558594 107.316406 21.164062 112.019531 22.558594 C 108.667969 18.234375 105.148438 13.035156 100.378906 10.347656 Z M 115.84375 138.207031 C 122.328125 134.984375 134.445312 129.535156 138.511719 138.21875 C 140.011719 141.421875 141.773438 146.832031 142.550781 150.132812 C 143.648438 154.792969 141.359375 164.589844 136.566406 166.15625 C 132.332031 167.535156 127.386719 167.453125 122.285156 166.429688 C 121.6875 165.929688 121.015625 165.058594 120.550781 164.152344 C 116.90625 164.011719 113.496094 164.347656 110.617188 165.84375 C 110.890625 168.535156 109.070312 168.96875 107.359375 169.523438 C 106.09375 174.539062 109.894531 181.089844 108.984375 185.664062 C 108.335938 188.921875 104.324219 189.425781 101.375 190.035156 C 101.277344 191.847656 101.503906 193.359375 101.703125 194.890625 C 101.027344 197.375 98.003906 198.789062 95.136719 199.132812 C 85.707031 200.269531 71.386719 200.777344 62.316406 197.519531 C 59.785156 191.3125 57.792969 183.769531 55.683594 176.6875 C 46.835938 177.628906 39.679688 172.871094 32.9375 169.753906 C 30.601562 168.671875 27.371094 168.078125 26.496094 166.21875 C 25.652344 164.421875 25.996094 160.976562 25.789062 157.71875 C 25.253906 149.40625 24.796875 141.382812 22.597656 132.871094 C 21.613281 129.050781 19.890625 125.679688 18.691406 122 C 17.582031 118.585938 15.644531 114.371094 15.140625 110.96875 C 14.390625 105.925781 19.144531 105.644531 22.179688 103.460938 C 26.878906 100.082031 30.566406 98.210938 35.652344 95.164062 C 37.160156 94.257812 41.707031 91.972656 42.222656 90.921875 C 43.25 88.832031 40.457031 85.890625 39.710938 84.253906 C 38.53125 81.667969 37.914062 79.46875 37.746094 76.914062 C 33.480469 76.242188 30.242188 73.703125 28.289062 70.84375 C 25.058594 66.105469 22.816406 57.347656 25.613281 50.683594 C 25.832031 50.15625 26.925781 49.125 27.085938 48.320312 C 27.40625 46.730469 26.488281 44.621094 26.429688 42.933594 C 26.136719 34.269531 27.898438 26.808594 33.734375 24.195312 C 36.101562 14.765625 44.582031 11.628906 52.574219 6.941406 C 55.558594 5.191406 58.851562 4.070312 62.25 2.820312 C 74.449219 -1.664062 93.160156 -0.816406 103.285156 6.832031 C 107.578125 10.074219 114.4375 16.921875 116.890625 21.882812 C 123.375 34.972656 122.914062 56.847656 118.378906 72.773438 C 117.769531 74.910156 116.886719 78.054688 115.652344 80.621094 C 114.792969 82.414062 112.117188 86.003906 112.441406 87.585938 C 112.777344 89.222656 118.539062 93.597656 119.777344 94.785156 C 122 96.933594 126.230469 99.777344 126.570312 102.484375 C 126.941406 105.367188 125.300781 109.308594 124.472656 112.085938 C 121.695312 121.363281 118.988281 129.9375 115.84375 138.207031 "/>
<path style=" stroke:none;fill-rule:evenodd;fill:rgb(96.862745%,89.411765%,80.392157%);fill-opacity:1;" d="M 72.574219 73.996094 C 72.925781 73.527344 74.859375 72.816406 77.566406 74.117188 C 77.566406 74.117188 74.359375 74.652344 74.625 79.996094 L 73.289062 79.726562 C 73.289062 79.726562 71.90625 74.882812 72.574219 73.996094 "/>
<path style=" stroke:none;fill-rule:evenodd;fill:rgb(11.372549%,9.803922%,9.803922%);fill-opacity:1;" d="M 96.011719 119.925781 C 96.011719 120.734375 95.355469 121.394531 94.542969 121.394531 C 93.730469 121.394531 93.070312 120.734375 93.070312 119.925781 C 93.070312 119.113281 93.730469 118.457031 94.542969 118.457031 C 95.355469 118.457031 96.011719 119.113281 96.011719 119.925781 "/>
<path style=" stroke:none;fill-rule:evenodd;fill:rgb(11.372549%,9.803922%,9.803922%);fill-opacity:1;" d="M 97.480469 126.734375 C 97.480469 127.546875 96.824219 128.203125 96.011719 128.203125 C 95.199219 128.203125 94.542969 127.546875 94.542969 126.734375 C 94.542969 125.925781 95.199219 125.265625 96.011719 125.265625 C 96.824219 125.265625 97.480469 125.925781 97.480469 126.734375 "/>
</g>
</svg>
